# xmcd CD database file
#
# Track frame offsets:
#	150
#	30517
#	48825
#	72501
#	94292
#	123481
#	141971
#	155889
#	174836
#
# Disc length: 2600 seconds
#
# Revision: 0
# Processed by: cddbd v1.5.1PL2 Copyright (c) Steve Scherf et al.
# Submitted via: CDex 1.51
#
DISCID=7b0a2609
DTITLE=cadenza - don't mind if we do again
DYEAR=2002
DGENRE=Jazz
TTITLE0=om shanti
TTITLE1=if you don't mind
TTITLE2=mama's black coffee
TTITLE3=funky monkey
TTITLE4=rhododendron flowers
TTITLE5=toxic virgin
TTITLE6=ulti
TTITLE7=bob says (singtam ko batoma)
TTITLE8=funkymonkey
EXTD=YEAR: 2002
EXTT0=
EXTT1=
EXTT2=
EXTT3=
EXTT4=
EXTT5=
EXTT6=
EXTT7=
EXTT8=
PLAYORDER=
